<?xml version="1.0" encoding="UTF-8"?>
<svg xmlns="http://www.w3.org/2000/svg" width="900" height="500" viewBox="0 0 900 500" font-family="DejaVu Serif, serif" font-size="11">
<rect width="900" height="500" fill="white"/>
<title>E3 bound tightness CDF (Cbar / Csolo)</title>
<text x="450.0" y="22" text-anchor="middle" font-size="13" font-weight="bold">E3 bound tightness CDF (Cbar / Csolo)</text><line x1="70" y1="40" x2="70" y2="440" stroke="black" stroke-width="0.8"/><line x1="66" y1="440.0" x2="720" y2="440.0" stroke="#dddddd" stroke-width="0.4" stroke-dasharray="2,2"/><text x="64" y="443.0" text-anchor="end" font-size="9">0</text><line x1="66" y1="360.0" x2="720" y2="360.0" stroke="#dddddd" stroke-width="0.4" stroke-dasharray="2,2"/><text x="64" y="363.0" text-anchor="end" font-size="9">0.2</text><line x1="66" y1="280.0" x2="720" y2="280.0" stroke="#dddddd" stroke-width="0.4" stroke-dasharray="2,2"/><text x="64" y="283.0" text-anchor="end" font-size="9">0.4</text><line x1="66" y1="200.0" x2="720" y2="200.0" stroke="#dddddd" stroke-width="0.4" stroke-dasharray="2,2"/><text x="64" y="203.0" text-anchor="end" font-size="9">0.6</text><line x1="66" y1="120.0" x2="720" y2="120.0" stroke="#dddddd" stroke-width="0.4" stroke-dasharray="2,2"/><text x="64" y="123.0" text-anchor="end" font-size="9">0.8</text><line x1="66" y1="40.0" x2="720" y2="40.0" stroke="#dddddd" stroke-width="0.4" stroke-dasharray="2,2"/><text x="64" y="43.0" text-anchor="end" font-size="9">1</text><text x="26" y="240.0" text-anchor="middle" transform="rotate(-90 26 240.0)" font-size="10">CDF</text><line x1="70" y1="440" x2="720" y2="440" stroke="black" stroke-width="0.8"/><text x="70.0" y="454" text-anchor="middle" font-size="9">0</text><text x="200.0" y="454" text-anchor="middle" font-size="9">0.279</text><text x="330.0" y="454" text-anchor="middle" font-size="9">0.558</text><text x="460.0" y="454" text-anchor="middle" font-size="9">0.837</text><text x="590.0" y="454" text-anchor="middle" font-size="9">1.12</text><text x="720.0" y="454" text-anchor="middle" font-size="9">1.39</text><text x="395.0" y="474" text-anchor="middle" font-size="10">bound ratio</text><path d="M 70.00 440.00 L 70.00 432.98 70.00 432.98 L 70.00 425.96 70.00 425.96 L 70.00 418.95 70.00 418.95 L 70.00 411.93 70.00 411.93 L 70.00 404.91 545.51 404.91 L 545.51 397.89 545.51 397.89 L 545.51 390.88 545.51 390.88 L 545.51 383.86 545.51 383.86 L 545.51 376.84 545.51 376.84 L 545.51 369.82 545.51 369.82 L 545.51 362.81 545.51 362.81 L 545.51 355.79 545.51 355.79 L 545.51 348.77 545.51 348.77 L 545.51 341.75 545.51 341.75 L 545.51 334.74 545.51 334.74 L 545.51 327.72 545.51 327.72 L 545.51 320.70 545.51 320.70 L 545.51 313.68 545.60 313.68 L 545.60 306.67 545.88 306.67 L 545.88 299.65 546.30 299.65 L 546.30 292.63 546.39 292.63 L 546.39 285.61 546.63 285.61 L 546.63 278.60 547.09 278.60 L 547.09 271.58 547.23 271.58 L 547.23 264.56 547.28 264.56 L 547.28 257.54 547.42 257.54 L 547.42 250.53 548.16 250.53 L 548.16 243.51 549.70 243.51 L 549.70 236.49 550.82 236.49 L 550.82 229.47 550.92 229.47 L 550.92 222.46 551.43 222.46 L 551.43 215.44 551.71 215.44 L 551.71 208.42 552.36 208.42 L 552.36 201.40 552.83 201.40 L 552.83 194.39 554.41 194.39 L 554.41 187.37 554.41 187.37 L 554.41 180.35 554.83 180.35 L 554.83 173.33 555.20 173.33 L 555.20 166.32 555.86 166.32 L 555.86 159.30 556.09 159.30 L 556.09 152.28 559.26 152.28 L 559.26 145.26 559.35 145.26 L 559.35 138.25 561.92 138.25 L 561.92 131.23 562.38 131.23 L 562.38 124.21 563.04 124.21 L 563.04 117.19 573.43 117.19 L 573.43 110.18 574.08 110.18 L 574.08 103.16 574.32 103.16 L 574.32 96.14 591.52 96.14 L 591.52 89.12 600.94 89.12 L 600.94 82.11 608.26 82.11 L 608.26 75.09 609.23 75.09 L 609.23 68.07 616.37 68.07 L 616.37 61.05 658.79 61.05 L 658.79 54.04 702.47 54.04 L 702.47 47.02 720.00 47.02 L 720.00 40.00 " fill="none" stroke="#7f7f7f" stroke-width="1.4"/><rect x="730" y="41" width="10" height="10" fill="#7f7f7f" stroke="black" stroke-width="0.3"/><text x="744" y="50" font-size="9">full_iso</text><path d="M 70.00 440.00 L 70.00 432.98 70.00 432.98 L 70.00 425.96 70.00 425.96 L 70.00 418.95 70.00 418.95 L 70.00 411.93 70.00 411.93 L 70.00 404.91 545.51 404.91 L 545.51 397.89 545.51 397.89 L 545.51 390.88 545.51 390.88 L 545.51 383.86 545.51 383.86 L 545.51 376.84 545.51 376.84 L 545.51 369.82 545.51 369.82 L 545.51 362.81 545.51 362.81 L 545.51 355.79 545.51 355.79 L 545.51 348.77 545.51 348.77 L 545.51 341.75 545.51 341.75 L 545.51 334.74 545.51 334.74 L 545.51 327.72 545.51 327.72 L 545.51 320.70 545.51 320.70 L 545.51 313.68 545.51 313.68 L 545.51 306.67 545.51 306.67 L 545.51 299.65 545.51 299.65 L 545.51 292.63 545.51 292.63 L 545.51 285.61 545.51 285.61 L 545.51 278.60 545.51 278.60 L 545.51 271.58 545.51 271.58 L 545.51 264.56 545.51 264.56 L 545.51 257.54 545.55 257.54 L 545.55 250.53 545.60 250.53 L 545.60 243.51 545.65 243.51 L 545.65 236.49 545.65 236.49 L 545.65 229.47 545.79 229.47 L 545.79 222.46 545.79 222.46 L 545.79 215.44 546.02 215.44 L 546.02 208.42 546.07 208.42 L 546.07 201.40 546.16 201.40 L 546.16 194.39 546.21 194.39 L 546.21 187.37 546.30 187.37 L 546.30 180.35 546.44 180.35 L 546.44 173.33 546.49 173.33 L 546.49 166.32 546.53 166.32 L 546.53 159.30 546.72 159.30 L 546.72 152.28 547.19 152.28 L 547.19 145.26 547.28 145.26 L 547.28 138.25 547.56 138.25 L 547.56 131.23 548.02 131.23 L 548.02 124.21 548.68 124.21 L 548.68 117.19 549.98 117.19 L 549.98 110.18 550.08 110.18 L 550.08 103.16 550.96 103.16 L 550.96 96.14 551.33 96.14 L 551.33 89.12 554.83 89.12 L 554.83 82.11 555.11 82.11 L 555.11 75.09 558.05 75.09 L 558.05 68.07 560.84 68.07 L 560.84 61.05 563.97 61.05 L 563.97 54.04 566.11 54.04 L 566.11 47.02 566.77 47.02 L 566.77 40.00 " fill="none" stroke="#1f77b4" stroke-width="1.4"/><rect x="730" y="54" width="10" height="10" fill="#1f77b4" stroke="black" stroke-width="0.3"/><text x="744" y="63" font-size="9">kim16</text><path d="M 70.00 440.00 L 70.00 432.98 70.00 432.98 L 70.00 425.96 70.00 425.96 L 70.00 418.95 70.00 418.95 L 70.00 411.93 70.00 411.93 L 70.00 404.91 545.51 404.91 L 545.51 397.89 545.51 397.89 L 545.51 390.88 545.51 390.88 L 545.51 383.86 545.51 383.86 L 545.51 376.84 545.51 376.84 L 545.51 369.82 545.51 369.82 L 545.51 362.81 545.51 362.81 L 545.51 355.79 545.51 355.79 L 545.51 348.77 545.51 348.77 L 545.51 341.75 545.51 341.75 L 545.51 334.74 545.51 334.74 L 545.51 327.72 545.51 327.72 L 545.51 320.70 545.51 320.70 L 545.51 313.68 545.51 313.68 L 545.51 306.67 545.51 306.67 L 545.51 299.65 545.51 299.65 L 545.51 292.63 545.51 292.63 L 545.51 285.61 545.51 285.61 L 545.51 278.60 545.51 278.60 L 545.51 271.58 545.51 271.58 L 545.51 264.56 545.51 264.56 L 545.51 257.54 545.55 257.54 L 545.55 250.53 545.65 250.53 L 545.65 243.51 545.65 243.51 L 545.65 236.49 545.65 236.49 L 545.65 229.47 545.83 229.47 L 545.83 222.46 545.83 222.46 L 545.83 215.44 546.11 215.44 L 546.11 208.42 546.16 208.42 L 546.16 201.40 546.25 201.40 L 546.25 194.39 546.30 194.39 L 546.30 187.37 546.39 187.37 L 546.39 180.35 546.63 180.35 L 546.63 173.33 546.63 173.33 L 546.63 166.32 546.67 166.32 L 546.67 159.30 546.91 159.30 L 546.91 152.28 547.42 152.28 L 547.42 145.26 547.56 145.26 L 547.56 138.25 547.88 138.25 L 547.88 131.23 548.40 131.23 L 548.40 124.21 549.14 124.21 L 549.14 117.19 550.64 117.19 L 550.64 110.18 550.78 110.18 L 550.78 103.16 551.80 103.16 L 551.80 96.14 552.22 96.14 L 552.22 89.12 556.23 89.12 L 556.23 82.11 556.56 82.11 L 556.56 75.09 559.96 75.09 L 559.96 68.07 563.13 68.07 L 563.13 61.05 566.77 61.05 L 566.77 54.04 569.24 54.04 L 569.24 47.02 569.94 47.02 L 569.94 40.00 " fill="none" stroke="#17becf" stroke-width="1.4"/><rect x="730" y="67" width="10" height="10" fill="#17becf" stroke="black" stroke-width="0.3"/><text x="744" y="76" font-size="9">hassan18</text><path d="M 70.00 440.00 L 70.00 432.98 70.00 432.98 L 70.00 425.96 70.00 425.96 L 70.00 418.95 70.00 418.95 L 70.00 411.93 70.00 411.93 L 70.00 404.91 545.51 404.91 L 545.51 397.89 545.51 397.89 L 545.51 390.88 545.51 390.88 L 545.51 383.86 545.51 383.86 L 545.51 376.84 545.51 376.84 L 545.51 369.82 545.51 369.82 L 545.51 362.81 545.51 362.81 L 545.51 355.79 545.51 355.79 L 545.51 348.77 545.51 348.77 L 545.51 341.75 545.51 341.75 L 545.51 334.74 545.51 334.74 L 545.51 327.72 545.51 327.72 L 545.51 320.70 545.51 320.70 L 545.51 313.68 545.51 313.68 L 545.51 306.67 545.51 306.67 L 545.51 299.65 545.51 299.65 L 545.51 292.63 545.51 292.63 L 545.51 285.61 545.51 285.61 L 545.51 278.60 545.55 278.60 L 545.55 271.58 545.88 271.58 L 545.88 264.56 545.88 264.56 L 545.88 257.54 545.93 257.54 L 545.93 250.53 546.11 250.53 L 546.11 243.51 546.11 243.51 L 546.11 236.49 546.39 236.49 L 546.39 229.47 546.58 229.47 L 546.58 222.46 546.91 222.46 L 546.91 215.44 547.19 215.44 L 547.19 208.42 547.37 208.42 L 547.37 201.40 547.47 201.40 L 547.47 194.39 547.79 194.39 L 547.79 187.37 548.49 187.37 L 548.49 180.35 548.72 180.35 L 548.72 173.33 548.91 173.33 L 548.91 166.32 548.96 166.32 L 548.96 159.30 549.00 159.30 L 549.00 152.28 549.05 152.28 L 549.05 145.26 549.33 145.26 L 549.33 138.25 549.38 138.25 L 549.38 131.23 549.47 131.23 L 549.47 124.21 549.52 124.21 L 549.52 117.19 551.15 117.19 L 551.15 110.18 551.24 110.18 L 551.24 103.16 551.71 103.16 L 551.71 96.14 556.23 96.14 L 556.23 89.12 556.28 89.12 L 556.28 82.11 563.08 82.11 L 563.08 75.09 579.59 75.09 L 579.59 68.07 583.87 68.07 L 583.87 61.05 603.83 61.05 L 603.83 54.04 606.39 54.04 L 606.39 47.02 624.48 47.02 L 624.48 40.00 " fill="none" stroke="#9467bd" stroke-width="1.4"/><rect x="730" y="80" width="10" height="10" fill="#9467bd" stroke="black" stroke-width="0.3"/><text x="744" y="89" font-size="9">sullivan24</text><path d="M 70.00 440.00 L 70.00 432.98 70.00 432.98 L 70.00 425.96 70.00 425.96 L 70.00 418.95 70.00 418.95 L 70.00 411.93 70.00 411.93 L 70.00 404.91 545.51 404.91 L 545.51 397.89 545.51 397.89 L 545.51 390.88 545.51 390.88 L 545.51 383.86 545.51 383.86 L 545.51 376.84 545.51 376.84 L 545.51 369.82 545.51 369.82 L 545.51 362.81 545.51 362.81 L 545.51 355.79 545.51 355.79 L 545.51 348.77 545.51 348.77 L 545.51 341.75 545.51 341.75 L 545.51 334.74 545.51 334.74 L 545.51 327.72 545.51 327.72 L 545.51 320.70 545.51 320.70 L 545.51 313.68 545.55 313.68 L 545.55 306.67 545.65 306.67 L 545.65 299.65 545.79 299.65 L 545.79 292.63 545.88 292.63 L 545.88 285.61 545.93 285.61 L 545.93 278.60 546.07 278.60 L 546.07 271.58 546.11 271.58 L 546.11 264.56 546.53 264.56 L 546.53 257.54 546.58 257.54 L 546.58 250.53 546.63 250.53 L 546.63 243.51 547.00 243.51 L 547.00 236.49 547.28 236.49 L 547.28 229.47 547.37 229.47 L 547.37 222.46 548.49 222.46 L 548.49 215.44 548.49 215.44 L 548.49 208.42 548.72 208.42 L 548.72 201.40 549.05 201.40 L 549.05 194.39 549.42 194.39 L 549.42 187.37 550.26 187.37 L 550.26 180.35 550.59 180.35 L 550.59 173.33 551.43 173.33 L 551.43 166.32 551.57 166.32 L 551.57 159.30 551.99 159.30 L 551.99 152.28 552.22 152.28 L 552.22 145.26 553.06 145.26 L 553.06 138.25 553.95 138.25 L 553.95 131.23 554.50 131.23 L 554.50 124.21 555.11 124.21 L 555.11 117.19 555.62 117.19 L 555.62 110.18 564.67 110.18 L 564.67 103.16 565.55 103.16 L 565.55 96.14 566.25 96.14 L 566.25 89.12 567.65 89.12 L 567.65 82.11 574.74 82.11 L 574.74 75.09 579.73 75.09 L 579.73 68.07 596.41 68.07 L 596.41 61.05 603.83 61.05 L 603.83 54.04 625.69 54.04 L 625.69 47.02 627.00 47.02 L 627.00 40.00 " fill="none" stroke="#2ca02c" stroke-width="1.4"/><rect x="730" y="93" width="10" height="10" fill="#2ca02c" stroke="black" stroke-width="0.3"/><text x="744" y="102" font-size="9">rampart_add</text><path d="M 70.00 440.00 L 70.00 432.98 70.00 432.98 L 70.00 425.96 70.00 425.96 L 70.00 418.95 70.00 418.95 L 70.00 411.93 70.00 411.93 L 70.00 404.91 545.51 404.91 L 545.51 397.89 545.51 397.89 L 545.51 390.88 545.51 390.88 L 545.51 383.86 545.51 383.86 L 545.51 376.84 545.51 376.84 L 545.51 369.82 545.51 369.82 L 545.51 362.81 545.51 362.81 L 545.51 355.79 545.51 355.79 L 545.51 348.77 545.51 348.77 L 545.51 341.75 545.51 341.75 L 545.51 334.74 545.51 334.74 L 545.51 327.72 545.51 327.72 L 545.51 320.70 545.51 320.70 L 545.51 313.68 545.65 313.68 L 545.65 306.67 545.93 306.67 L 545.93 299.65 546.07 299.65 L 546.07 292.63 547.70 292.63 L 547.70 285.61 547.79 285.61 L 547.79 278.60 548.82 278.60 L 548.82 271.58 549.05 271.58 L 549.05 264.56 549.52 264.56 L 549.52 257.54 550.59 257.54 L 550.59 250.53 550.68 250.53 L 550.68 243.51 550.96 243.51 L 550.96 236.49 551.10 236.49 L 551.10 229.47 551.57 229.47 L 551.57 222.46 551.99 222.46 L 551.99 215.44 552.78 215.44 L 552.78 208.42 552.97 208.42 L 552.97 201.40 553.06 201.40 L 553.06 194.39 553.62 194.39 L 553.62 187.37 554.04 187.37 L 554.04 180.35 554.50 180.35 L 554.50 173.33 556.28 173.33 L 556.28 166.32 556.65 166.32 L 556.65 159.30 557.21 159.30 L 557.21 152.28 558.51 152.28 L 558.51 145.26 559.31 145.26 L 559.31 138.25 566.25 138.25 L 566.25 131.23 566.25 131.23 L 566.25 124.21 567.65 124.21 L 567.65 117.19 568.54 117.19 L 568.54 110.18 568.86 110.18 L 568.86 103.16 569.14 103.16 L 569.14 96.14 574.55 96.14 L 574.55 89.12 574.74 89.12 L 574.74 82.11 579.73 82.11 L 579.73 75.09 591.57 75.09 L 591.57 68.07 596.41 68.07 L 596.41 61.05 603.83 61.05 L 603.83 54.04 625.69 54.04 L 625.69 47.02 627.00 47.02 L 627.00 40.00 " fill="none" stroke="#d62728" stroke-width="1.4"/><rect x="730" y="106" width="10" height="10" fill="#d62728" stroke="black" stroke-width="0.3"/><text x="744" y="115" font-size="9">rampart_full</text><path d="M 70.00 440.00 L 70.00 432.98 70.00 432.98 L 70.00 425.96 70.00 425.96 L 70.00 418.95 70.00 418.95 L 70.00 411.93 70.00 411.93 L 70.00 404.91 465.32 404.91 L 465.32 397.89 501.13 397.89 L 501.13 390.88 503.92 390.88 L 503.92 383.86 527.75 383.86 L 527.75 376.84 528.68 376.84 L 528.68 369.82 529.66 369.82 L 529.66 362.81 531.76 362.81 L 531.76 355.79 531.85 355.79 L 531.85 348.77 534.79 348.77 L 534.79 341.75 535.11 341.75 L 535.11 334.74 535.16 334.74 L 535.16 327.72 535.20 327.72 L 535.20 320.70 535.90 320.70 L 535.90 313.68 536.18 313.68 L 536.18 306.67 537.77 306.67 L 537.77 299.65 538.33 299.65 L 538.33 292.63 538.42 292.63 L 538.42 285.61 538.65 285.61 L 538.65 278.60 539.03 278.60 L 539.03 271.58 539.03 271.58 L 539.03 264.56 539.45 264.56 L 539.45 257.54 540.15 257.54 L 540.15 250.53 541.27 250.53 L 541.27 243.51 541.54 243.51 L 541.54 236.49 541.64 236.49 L 541.64 229.47 541.96 229.47 L 541.96 222.46 541.96 222.46 L 541.96 215.44 543.32 215.44 L 543.32 208.42 543.50 208.42 L 543.50 201.40 543.69 201.40 L 543.69 194.39 543.83 194.39 L 543.83 187.37 544.16 187.37 L 544.16 180.35 544.48 180.35 L 544.48 173.33 544.53 173.33 L 544.53 166.32 544.76 166.32 L 544.76 159.30 545.55 159.30 L 545.55 152.28 546.77 152.28 L 546.77 145.26 547.09 145.26 L 547.09 138.25 547.65 138.25 L 547.65 131.23 548.96 131.23 L 548.96 124.21 549.28 124.21 L 549.28 117.19 549.61 117.19 L 549.61 110.18 549.70 110.18 L 549.70 103.16 554.32 103.16 L 554.32 96.14 556.00 96.14 L 556.00 89.12 556.18 89.12 L 556.18 82.11 556.56 82.11 L 556.56 75.09 558.75 75.09 L 558.75 68.07 559.12 68.07 L 559.12 61.05 559.35 61.05 L 559.35 54.04 564.67 54.04 L 564.67 47.02 581.36 47.02 L 581.36 40.00 " fill="none" stroke="#000000" stroke-width="1.4"/><rect x="730" y="119" width="10" height="10" fill="#000000" stroke="black" stroke-width="0.3"/><text x="744" y="128" font-size="9">empirical_max</text></svg>
