<?xml version="1.0" encoding="UTF-8"?>
<svg xmlns="http://www.w3.org/2000/svg" width="1100" height="460" viewBox="0 0 1100 460" font-family="DejaVu Serif, serif" font-size="11">
<rect width="1100" height="460" fill="white"/>
<title>E4 C_obs / Cbar_RAMPART (n=227, viol=0)</title>
<text x="550.0" y="22" text-anchor="middle" font-size="13" font-weight="bold">E4 C_obs / Cbar_RAMPART (n=227, viol=0)</text><line x1="70" y1="40" x2="70" y2="320" stroke="black" stroke-width="0.8"/><line x1="66" y1="320.0" x2="1070" y2="320.0" stroke="#dddddd" stroke-width="0.4" stroke-dasharray="2,2"/><text x="64" y="323.0" text-anchor="end" font-size="9">0</text><line x1="66" y1="273.3333333333333" x2="1070" y2="273.3333333333333" stroke="#dddddd" stroke-width="0.4" stroke-dasharray="2,2"/><text x="64" y="276.3333333333333" text-anchor="end" font-size="9">41.6</text><line x1="66" y1="226.66666666666669" x2="1070" y2="226.66666666666669" stroke="#dddddd" stroke-width="0.4" stroke-dasharray="2,2"/><text x="64" y="229.66666666666669" text-anchor="end" font-size="9">83.2</text><line x1="66" y1="180.0" x2="1070" y2="180.0" stroke="#dddddd" stroke-width="0.4" stroke-dasharray="2,2"/><text x="64" y="183.0" text-anchor="end" font-size="9">125</text><line x1="66" y1="133.33333333333334" x2="1070" y2="133.33333333333334" stroke="#dddddd" stroke-width="0.4" stroke-dasharray="2,2"/><text x="64" y="136.33333333333334" text-anchor="end" font-size="9">166</text><line x1="66" y1="86.66666666666666" x2="1070" y2="86.66666666666666" stroke="#dddddd" stroke-width="0.4" stroke-dasharray="2,2"/><text x="64" y="89.66666666666666" text-anchor="end" font-size="9">208</text><line x1="66" y1="40.0" x2="1070" y2="40.0" stroke="#dddddd" stroke-width="0.4" stroke-dasharray="2,2"/><text x="64" y="43.0" text-anchor="end" font-size="9">250</text><text x="26" y="180.0" text-anchor="middle" transform="rotate(-90 26 180.0)" font-size="10">count</text><rect x="71.00" y="65.45" width="81.33" height="254.55" fill="#4472c4" stroke="black" stroke-width="0.3"/><text x="111.67" y="324.00" text-anchor="end" font-size="8" transform="rotate(-70 111.67 324.00)">0.000</text><rect x="154.33" y="320.00" width="81.33" height="0.00" fill="#4472c4" stroke="black" stroke-width="0.3"/><text x="195.00" y="324.00" text-anchor="end" font-size="8" transform="rotate(-70 195.00 324.00)">0.000</text><rect x="237.67" y="320.00" width="81.33" height="0.00" fill="#4472c4" stroke="black" stroke-width="0.3"/><text x="278.33" y="324.00" text-anchor="end" font-size="8" transform="rotate(-70 278.33 324.00)">0.000</text><rect x="321.00" y="320.00" width="81.33" height="0.00" fill="#4472c4" stroke="black" stroke-width="0.3"/><text x="361.67" y="324.00" text-anchor="end" font-size="8" transform="rotate(-70 361.67 324.00)">0.000</text><rect x="404.33" y="320.00" width="81.33" height="0.00" fill="#4472c4" stroke="black" stroke-width="0.3"/><text x="445.00" y="324.00" text-anchor="end" font-size="8" transform="rotate(-70 445.00 324.00)">0.000</text><rect x="487.67" y="320.00" width="81.33" height="0.00" fill="#4472c4" stroke="black" stroke-width="0.3"/><text x="528.33" y="324.00" text-anchor="end" font-size="8" transform="rotate(-70 528.33 324.00)">0.000</text><rect x="571.00" y="320.00" width="81.33" height="0.00" fill="#4472c4" stroke="black" stroke-width="0.3"/><text x="611.67" y="324.00" text-anchor="end" font-size="8" transform="rotate(-70 611.67 324.00)">0.000</text><rect x="654.33" y="320.00" width="81.33" height="0.00" fill="#4472c4" stroke="black" stroke-width="0.3"/><text x="695.00" y="324.00" text-anchor="end" font-size="8" transform="rotate(-70 695.00 324.00)">0.000</text><rect x="737.67" y="320.00" width="81.33" height="0.00" fill="#4472c4" stroke="black" stroke-width="0.3"/><text x="778.33" y="324.00" text-anchor="end" font-size="8" transform="rotate(-70 778.33 324.00)">0.000</text><rect x="821.00" y="320.00" width="81.33" height="0.00" fill="#4472c4" stroke="black" stroke-width="0.3"/><text x="861.67" y="324.00" text-anchor="end" font-size="8" transform="rotate(-70 861.67 324.00)">0.000</text><rect x="904.33" y="320.00" width="81.33" height="0.00" fill="#4472c4" stroke="black" stroke-width="0.3"/><text x="945.00" y="324.00" text-anchor="end" font-size="8" transform="rotate(-70 945.00 324.00)">0.000</text><rect x="987.67" y="320.00" width="81.33" height="0.00" fill="#4472c4" stroke="black" stroke-width="0.3"/><text x="1028.33" y="324.00" text-anchor="end" font-size="8" transform="rotate(-70 1028.33 324.00)">0.000</text></svg>
